M48
INCH,LZ
;FILE_FORMAT=2:4
;TYPE=PLATED
;Layer: PTH_Through
;EasyEDA v6.5.48, 2025-02-09 20:19:28
;01cb3c1d78794921a089d1304ca59f51,d72c4acdc2164061951c9b7558476481,10
;Gerber Generator version 0.2
;Holesize 1 = 0.0120 inch
T01C0.0120
;Holesize 2 = 0.0240 inch
T02C0.0240
;Holesize 3 = 0.0350 inch
T03C0.0350
;Holesize 4 = 0.0360 inch
T04C0.0360
;Holesize 5 = 0.0400 inch
T05C0.0400
;Holesize 6 = 0.0470 inch
T06C0.0470
;Holesize 7 = 0.0710 inch
T07C0.0710
%
G05
G90
T01
X021350Y015859
X021350Y012679
X021910Y016250
X021634Y015517
X023277Y012316
X013752Y016823
X018247Y012200
X021555Y016791
T02
X001118Y017600G85X000882Y017600
X003124Y015710G85X002888Y015710
X003898Y017599G85X003662Y017599
T03
X009700Y023200
X010700Y023200
X036000Y029000
X035000Y029000
X034000Y029000
X037000Y029000
T04
X005879Y028000G85X005881Y028000
X003319Y028000G85X003321Y028000
T05
X003619Y003690G85X003621Y003690
X006179Y003690G85X006181Y003690
X003619Y001910G85X003621Y001910
X006179Y001910G85X006181Y001910
X007819Y003690G85X007821Y003690
X010379Y003690G85X010381Y003690
X007819Y001910G85X007821Y001910
X010379Y001910G85X010381Y001910
X012619Y003690G85X012621Y003690
X015179Y003690G85X015181Y003690
X012619Y001910G85X012621Y001910
X015179Y001910G85X015181Y001910
X016619Y003690G85X016621Y003690
X019179Y003690G85X019181Y003690
X016619Y001910G85X016621Y001910
X019179Y001910G85X019181Y001910
X021519Y003690G85X021521Y003690
X024079Y003690G85X024081Y003690
X021519Y001910G85X021521Y001910
X024079Y001910G85X024081Y001910
X026019Y003590G85X026021Y003590
X028579Y003590G85X028581Y003590
X026019Y001810G85X026021Y001810
X028579Y001810G85X028581Y001810
X030119Y003590G85X030121Y003590
X032679Y003590G85X032681Y003590
X030119Y001810G85X030121Y001810
X032679Y001810G85X032681Y001810
X034419Y003490G85X034421Y003490
X036979Y003490G85X036981Y003490
X034419Y001710G85X034421Y001710
X036979Y001710G85X036981Y001710
T06
X003786Y016645
X001416Y016645
X030899Y018700G85X030901Y018700
X030899Y016731G85X030901Y016731
X030899Y020668G85X030901Y020668
X034799Y018500G85X034801Y018500
X034799Y016531G85X034801Y016531
X034799Y020468G85X034801Y020468
T07
X002750Y012085G85X002750Y012715
X004600Y012085G85X004600Y012715
X000900Y012085G85X000900Y012715
M30
