G04 Layer: TopSolderMaskLayer*
G04 EasyEDA v6.5.48, 2025-02-09 20:19:28*
G04 01cb3c1d78794921a089d1304ca59f51,d72c4acdc2164061951c9b7558476481,10*
G04 Gerber Generator version 0.2*
G04 Scale: 100 percent, Rotated: No, Reflected: No *
G04 Dimensions in inches *
G04 leading zeros omitted , absolute positions ,3 integer and 6 decimal *
%FSLAX36Y36*%
%MOIN*%

%AMMACRO1*4,1,24,-0.0433,-0.0138,-0.0439,-0.0137,-0.0445,-0.0134,-0.0449,-0.013,-0.0452,-0.0124,-0.0453,-0.0118,-0.0453,0.0118,-0.0452,0.0124,-0.0449,0.013,-0.0445,0.0134,-0.0439,0.0137,-0.0433,0.0138,0.0433,0.0138,0.0439,0.0137,0.0445,0.0134,0.0449,0.013,0.0452,0.0124,0.0453,0.0118,0.0453,-0.0118,0.0452,-0.0124,0.0449,-0.013,0.0445,-0.0134,0.0439,-0.0137,0.0433,-0.0138,-0.0433,-0.0138,0*%
%AMMACRO2*4,1,8,-0.0579,-0.0512,-0.0591,-0.05,-0.0591,0.05,-0.0579,0.0512,0.0579,0.0512,0.0591,0.05,0.0591,-0.05,0.0579,-0.0512,-0.0579,-0.0512,0*%
%AMMACRO3*4,1,24,-0.0256,-0.0335,-0.0262,-0.0334,-0.0268,-0.0331,-0.0272,-0.0327,-0.0275,-0.0321,-0.0276,-0.0315,-0.0276,0.0315,-0.0275,0.0321,-0.0272,0.0327,-0.0268,0.0331,-0.0262,0.0334,-0.0256,0.0335,0.0256,0.0335,0.0262,0.0334,0.0268,0.0331,0.0272,0.0327,0.0275,0.0321,0.0276,0.0315,0.0276,-0.0315,0.0275,-0.0321,0.0272,-0.0327,0.0268,-0.0331,0.0262,-0.0334,0.0256,-0.0335,-0.0256,-0.0335,0*%
%AMMACRO4*4,1,48,-0.0163,-0.0413,-0.0166,-0.0412,-0.0169,-0.0412,-0.0172,-0.041,-0.0174,-0.0409,-0.0177,-0.0407,-0.0407,-0.0177,-0.0409,-0.0174,-0.041,-0.0172,-0.0412,-0.0169,-0.0412,-0.0166,-0.0413,-0.0163,-0.0413,0.0163,-0.0412,0.0166,-0.0412,0.0169,-0.041,0.0172,-0.0409,0.0174,-0.0407,0.0177,-0.0177,0.0407,-0.0174,0.0409,-0.0172,0.041,-0.0169,0.0412,-0.0166,0.0412,-0.0163,0.0413,0.0163,0.0413,0.0166,0.0412,0.0169,0.0412,0.0172,0.041,0.0174,0.0409,0.0177,0.0407,0.0407,0.0177,0.0409,0.0174,0.041,0.0172,0.0412,0.0169,0.0412,0.0166,0.0413,0.0163,0.0413,-0.0163,0.0412,-0.0166,0.0412,-0.0169,0.041,-0.0172,0.0409,-0.0174,0.0407,-0.0177,0.0177,-0.0407,0.0174,-0.0409,0.0172,-0.041,0.0169,-0.0412,0.0166,-0.0412,0.0163,-0.0413,-0.0163,-0.0413,0*%
%AMMACRO5*4,1,24,-0.0256,-0.0315,-0.0262,-0.0314,-0.0268,-0.0311,-0.0272,-0.0307,-0.0275,-0.0301,-0.0276,-0.0295,-0.0276,0.0295,-0.0275,0.0301,-0.0272,0.0307,-0.0268,0.0311,-0.0262,0.0314,-0.0256,0.0315,0.0256,0.0315,0.0262,0.0314,0.0268,0.0311,0.0272,0.0307,0.0275,0.0301,0.0276,0.0295,0.0276,-0.0295,0.0275,-0.0301,0.0272,-0.0307,0.0268,-0.0311,0.0262,-0.0314,0.0256,-0.0315,-0.0256,-0.0315,0*%
%AMMACRO6*4,1,8,-0.0318,-0.033,-0.033,-0.0318,-0.033,0.0318,-0.0318,0.033,0.0318,0.033,0.033,0.0318,0.033,-0.0318,0.0318,-0.033,-0.0318,-0.033,0*%
%AMMACRO7*4,1,8,-0.0167,-0.019,-0.0179,-0.0178,-0.0179,0.0178,-0.0167,0.019,0.0167,0.019,0.0179,0.0178,0.0179,-0.0178,0.0167,-0.019,-0.0167,-0.019,0*%
%AMMACRO8*4,1,8,-0.0489,-0.0827,-0.0512,-0.0804,-0.0512,0.0804,-0.0489,0.0827,0.0489,0.0827,0.0512,0.0804,0.0512,-0.0804,0.0489,-0.0827,-0.0489,-0.0827,0*%
%AMMACRO9*4,1,24,-0.0256,-0.0315,-0.0262,-0.0314,-0.0268,-0.0311,-0.0272,-0.0307,-0.0275,-0.0302,-0.0276,-0.0295,-0.0276,0.0295,-0.0275,0.0302,-0.0272,0.0307,-0.0268,0.0311,-0.0262,0.0314,-0.0256,0.0315,0.0256,0.0315,0.0262,0.0314,0.0268,0.0311,0.0272,0.0307,0.0275,0.0302,0.0276,0.0295,0.0276,-0.0295,0.0275,-0.0302,0.0272,-0.0307,0.0268,-0.0311,0.0262,-0.0314,0.0256,-0.0315,-0.0256,-0.0315,0*%
%ADD10MACRO1*%
%ADD11MACRO2*%
%ADD12MACRO3*%
%ADD13MACRO4*%
%ADD14MACRO5*%
%ADD15MACRO6*%
%ADD17C,0.0660*%
%ADD18O,0.07486599999999999X0.039432999999999996*%
%ADD19C,0.0512*%
%ADD20C,0.0700*%
%ADD21MACRO7*%
%ADD22C,0.0780*%
%ADD23MACRO8*%
%ADD24MACRO9*%
%ADD25C,0.1064*%

%LPD*%
D10*
G01*
X2047640Y1675000D03*
G01*
X2252365Y1675000D03*
G01*
X2047640Y1725000D03*
G01*
X2047640Y1625000D03*
G01*
X2047640Y1575000D03*
G01*
X2252365Y1725000D03*
G01*
X2252365Y1625000D03*
G01*
X2252365Y1575000D03*
D11*
G01*
X2217955Y2330000D03*
G01*
X1962055Y2330000D03*
G01*
X1637955Y2740000D03*
G01*
X1382055Y2740000D03*
G01*
X2217955Y2750000D03*
G01*
X1962055Y2750000D03*
D12*
G01*
X3602600Y1920004D03*
G01*
X3677400Y1920004D03*
D11*
G01*
X1647955Y2320000D03*
G01*
X1392055Y2320000D03*
D13*
G01*
X587995Y2800005D03*
G01*
X331995Y2800005D03*
D10*
G01*
X1297640Y1675000D03*
G01*
X1502364Y1675000D03*
G01*
X1297640Y1725000D03*
G01*
X1297640Y1625000D03*
G01*
X1297640Y1575000D03*
G01*
X1502364Y1725000D03*
G01*
X1502364Y1625000D03*
G01*
X1502364Y1575000D03*
D14*
G01*
X1362600Y1220005D03*
G01*
X1437400Y1220005D03*
D15*
G01*
X970000Y2320000D03*
D17*
G01*
X1070000Y2320000D03*
D18*
G01*
X100000Y1760000D03*
G01*
X300580Y1571000D03*
G01*
X378000Y1759880D03*
D19*
G01*
X378610Y1664520D03*
G01*
X141640Y1664520D03*
D17*
G01*
X3600000Y2900000D03*
G01*
X3500000Y2900000D03*
D15*
G01*
X3400000Y2900000D03*
D20*
G01*
X3700000Y2900000D03*
D21*
G01*
X819654Y800000D03*
G01*
X760345Y800000D03*
G01*
X999654Y800000D03*
G01*
X940345Y800000D03*
G01*
X1199655Y800000D03*
G01*
X1140345Y800000D03*
G01*
X1369655Y810000D03*
G01*
X1310345Y810000D03*
G01*
X1569655Y810000D03*
G01*
X1510345Y810000D03*
G01*
X1769655Y810000D03*
G01*
X1710345Y810000D03*
G01*
X1969655Y810000D03*
G01*
X1910345Y810000D03*
G01*
X2169655Y810000D03*
G01*
X2110345Y810000D03*
D22*
G01*
X362000Y369000D03*
G01*
X618000Y369000D03*
G01*
X362000Y191000D03*
G01*
X618000Y191000D03*
G01*
X782000Y369000D03*
G01*
X1038000Y369000D03*
G01*
X782000Y191000D03*
G01*
X1038000Y191000D03*
D23*
G01*
X275000Y1240000D03*
G01*
X460000Y1240000D03*
G01*
X90000Y1240000D03*
D24*
G01*
X2082600Y1220000D03*
G01*
X2157400Y1220000D03*
D25*
G01*
X3090000Y1870000D03*
G01*
X3090000Y1673150D03*
G01*
X3090000Y2066850D03*
G01*
X3480000Y1850000D03*
G01*
X3480000Y1653150D03*
G01*
X3480000Y2046850D03*
D24*
G01*
X2412600Y1220000D03*
G01*
X2487400Y1220000D03*
G01*
X2862600Y1220000D03*
G01*
X2937400Y1220000D03*
G01*
X1692600Y1220000D03*
G01*
X1767400Y1220000D03*
D22*
G01*
X1262000Y369000D03*
G01*
X1518000Y369000D03*
G01*
X1262000Y191000D03*
G01*
X1518000Y191000D03*
G01*
X1662000Y369000D03*
G01*
X1918000Y369000D03*
G01*
X1662000Y191000D03*
G01*
X1918000Y191000D03*
G01*
X2152000Y369000D03*
G01*
X2408000Y369000D03*
G01*
X2152000Y191000D03*
G01*
X2408000Y191000D03*
G01*
X2602000Y359000D03*
G01*
X2858000Y359000D03*
G01*
X2602000Y181000D03*
G01*
X2858000Y181000D03*
G01*
X3012000Y359000D03*
G01*
X3268000Y359000D03*
G01*
X3012000Y181000D03*
G01*
X3268000Y181000D03*
G01*
X3442000Y349000D03*
G01*
X3698000Y349000D03*
G01*
X3442000Y171000D03*
G01*
X3698000Y171000D03*
M02*
