G04 Layer: BottomLayer*
G04 EasyEDA v6.5.48, 2025-02-09 20:19:28*
G04 01cb3c1d78794921a089d1304ca59f51,d72c4acdc2164061951c9b7558476481,10*
G04 Gerber Generator version 0.2*
G04 Scale: 100 percent, Rotated: No, Reflected: No *
G04 Dimensions in inches *
G04 leading zeros omitted , absolute positions ,3 integer and 6 decimal *
%FSLAX36Y36*%
%MOIN*%

%AMMACRO1*4,1,8,0.0393,0.0163,0.0163,0.0393,-0.0163,0.0393,-0.0393,0.0163,-0.0393,-0.0163,-0.0163,-0.0393,0.0163,-0.0393,0.0393,-0.0163,0.0393,0.0163,0*%
%ADD10C,0.0060*%
%ADD11MACRO1*%
%ADD12R,0.0620X0.0620*%
%ADD13C,0.0620*%
%ADD14O,0.070866X0.035433*%
%ADD15C,0.0472*%
%ADD16C,0.0740*%
%ADD18R,0.0945X0.1575*%
%ADD19C,0.0984*%
%ADD20C,0.0240*%

%LPD*%
D10*
X2135010Y1585870D02*
G01*
X2135010Y1267910D01*
X332000Y2800000D02*
G01*
X332000Y1805880D01*
X378000Y1759880D01*
X3400000Y2066850D02*
G01*
X3460000Y2066850D01*
X3480000Y2046850D01*
X3090000Y2066850D02*
G01*
X3400000Y2066850D01*
X3400000Y2900000D02*
G01*
X3400000Y2066850D01*
X2163420Y1551730D02*
G01*
X2190970Y1579280D01*
X2190970Y1625000D01*
X2327650Y1231590D02*
G01*
X2327650Y1387500D01*
X2163420Y1551730D01*
X1662000Y369000D02*
G01*
X1612690Y418310D01*
X1311310Y418310D01*
X1262000Y369000D01*
X2327650Y369000D02*
G01*
X2152000Y369000D01*
X2602000Y359000D02*
G01*
X2562500Y319500D01*
X2377150Y319500D01*
X2327650Y369000D01*
X2327650Y369000D02*
G01*
X2327650Y1231590D01*
X1262000Y369000D02*
G01*
X1215920Y415080D01*
X828080Y415080D01*
X782000Y369000D01*
X3600000Y2900000D02*
G01*
X3600000Y507000D01*
X3442000Y349000D01*
X2152000Y369000D02*
G01*
X2105680Y415319D01*
X1708320Y415319D01*
X1662000Y369000D01*
X275000Y1240000D02*
G01*
X275000Y1152250D01*
X3090000Y1673150D02*
G01*
X3057340Y1705810D01*
X1185630Y1705810D01*
X629510Y1149690D01*
X277560Y1149690D01*
X275000Y1152250D01*
X460000Y1240000D02*
G01*
X460000Y1411579D01*
X300580Y1571000D01*
X588000Y2800000D02*
G01*
X1068000Y2320000D01*
X1070000Y2320000D01*
X1375230Y1682330D02*
G01*
X1824660Y1232900D01*
X1824660Y1220000D01*
X3480000Y1653150D02*
G01*
X3437130Y1610280D01*
X2765690Y1610280D01*
X2696890Y1679079D01*
X2155460Y1679079D01*
D11*
G01*
X587995Y2800005D03*
G01*
X331995Y2800005D03*
D12*
G01*
X970000Y2320000D03*
D13*
G01*
X1070000Y2320000D03*
D14*
G01*
X100000Y1760000D03*
G01*
X300580Y1571000D03*
G01*
X378000Y1759880D03*
D15*
G01*
X378610Y1664520D03*
G01*
X141640Y1664520D03*
D13*
G01*
X3600000Y2900000D03*
G01*
X3500000Y2900000D03*
D12*
G01*
X3400000Y2900000D03*
D13*
G01*
X3700000Y2900000D03*
D16*
G01*
X362000Y369000D03*
G01*
X618000Y369000D03*
G01*
X362000Y191000D03*
G01*
X618000Y191000D03*
G01*
X782000Y369000D03*
G01*
X1038000Y369000D03*
G01*
X782000Y191000D03*
G01*
X1038000Y191000D03*
D18*
G01*
X275000Y1240000D03*
G01*
X460000Y1240000D03*
G01*
X90000Y1240000D03*
D19*
G01*
X3090000Y1870000D03*
G01*
X3090000Y1673150D03*
G01*
X3090000Y2066850D03*
G01*
X3480000Y1850000D03*
G01*
X3480000Y1653150D03*
G01*
X3480000Y2046850D03*
D16*
G01*
X1262000Y369000D03*
G01*
X1518000Y369000D03*
G01*
X1262000Y191000D03*
G01*
X1518000Y191000D03*
G01*
X1662000Y369000D03*
G01*
X1918000Y369000D03*
G01*
X1662000Y191000D03*
G01*
X1918000Y191000D03*
G01*
X2152000Y369000D03*
G01*
X2408000Y369000D03*
G01*
X2152000Y191000D03*
G01*
X2408000Y191000D03*
G01*
X2602000Y359000D03*
G01*
X2858000Y359000D03*
G01*
X2602000Y181000D03*
G01*
X2858000Y181000D03*
G01*
X3012000Y359000D03*
G01*
X3268000Y359000D03*
G01*
X3012000Y181000D03*
G01*
X3268000Y181000D03*
G01*
X3442000Y349000D03*
G01*
X3698000Y349000D03*
G01*
X3442000Y171000D03*
G01*
X3698000Y171000D03*
D20*
G01*
X2135010Y1585870D03*
G01*
X2135010Y1267910D03*
G01*
X2190970Y1625000D03*
G01*
X2163420Y1551730D03*
G01*
X2327650Y1231590D03*
G01*
X1375230Y1682330D03*
G01*
X1824660Y1220000D03*
G01*
X2155460Y1679079D03*
M02*
