G04 Layer: TopPasteMaskLayer*
G04 EasyEDA v6.5.48, 2025-02-09 20:19:28*
G04 01cb3c1d78794921a089d1304ca59f51,d72c4acdc2164061951c9b7558476481,10*
G04 Gerber Generator version 0.2*
G04 Scale: 100 percent, Rotated: No, Reflected: No *
G04 Dimensions in inches *
G04 leading zeros omitted , absolute positions ,3 integer and 6 decimal *
%FSLAX36Y36*%
%MOIN*%

%AMMACRO1*4,1,4,0.0433,0.0118,0.0433,-0.0118,-0.0433,-0.0118,-0.0433,0.0118,0.0433,0.0118,0*%
%AMMACRO2*4,1,4,-0.0256,0.0315,0.0256,0.0315,0.0256,-0.0315,-0.0256,-0.0315,-0.0256,0.0315,0*%
%AMMACRO3*4,1,4,-0.0256,0.0295,0.0256,0.0295,0.0256,-0.0295,-0.0256,-0.0295,-0.0256,0.0295,0*%
%ADD10MACRO1*%
%ADD11R,0.1142X0.0984*%
%ADD12MACRO2*%
%ADD13MACRO3*%

%LPD*%
G36*
X805560Y817720D02*
G01*
X803580Y815740D01*
X803580Y806780D01*
X818160Y806780D01*
X818160Y793780D01*
X803580Y793780D01*
X803580Y784260D01*
X805560Y782280D01*
X837039Y782280D01*
X839020Y784260D01*
X839020Y815740D01*
X837039Y817720D01*
G37*
G36*
X742960Y817720D02*
G01*
X740980Y815740D01*
X740980Y784260D01*
X742960Y782280D01*
X774440Y782280D01*
X776420Y784260D01*
X776420Y793220D01*
X761860Y793220D01*
X761860Y806220D01*
X776420Y806220D01*
X776420Y815740D01*
X774440Y817720D01*
G37*
G36*
X985560Y817720D02*
G01*
X983580Y815740D01*
X983580Y806780D01*
X998160Y806780D01*
X998160Y793780D01*
X983580Y793780D01*
X983580Y784260D01*
X985560Y782280D01*
X1017039Y782280D01*
X1019020Y784260D01*
X1019020Y815740D01*
X1017039Y817720D01*
G37*
G36*
X922960Y817720D02*
G01*
X920980Y815740D01*
X920980Y784260D01*
X922960Y782280D01*
X954440Y782280D01*
X956420Y784260D01*
X956420Y793220D01*
X941860Y793220D01*
X941860Y806220D01*
X956420Y806220D01*
X956420Y815740D01*
X954440Y817720D01*
G37*
G36*
X1185560Y817720D02*
G01*
X1183580Y815740D01*
X1183580Y806780D01*
X1198160Y806780D01*
X1198160Y793780D01*
X1183580Y793780D01*
X1183580Y784260D01*
X1185560Y782280D01*
X1217040Y782280D01*
X1219020Y784260D01*
X1219020Y815740D01*
X1217040Y817720D01*
G37*
G36*
X1122960Y817720D02*
G01*
X1120980Y815740D01*
X1120980Y784260D01*
X1122960Y782280D01*
X1154440Y782280D01*
X1156420Y784260D01*
X1156420Y793220D01*
X1141860Y793220D01*
X1141860Y806220D01*
X1156420Y806220D01*
X1156420Y815740D01*
X1154440Y817720D01*
G37*
G36*
X1355560Y827720D02*
G01*
X1353580Y825740D01*
X1353580Y816780D01*
X1368160Y816780D01*
X1368160Y803780D01*
X1353580Y803780D01*
X1353580Y794260D01*
X1355560Y792280D01*
X1387040Y792280D01*
X1389019Y794260D01*
X1389019Y825740D01*
X1387040Y827720D01*
G37*
G36*
X1292960Y827720D02*
G01*
X1290980Y825740D01*
X1290980Y794260D01*
X1292960Y792280D01*
X1324440Y792280D01*
X1326420Y794260D01*
X1326420Y803220D01*
X1311860Y803220D01*
X1311860Y816220D01*
X1326420Y816220D01*
X1326420Y825740D01*
X1324440Y827720D01*
G37*
G36*
X1555560Y827720D02*
G01*
X1553580Y825740D01*
X1553580Y816780D01*
X1568160Y816780D01*
X1568160Y803780D01*
X1553580Y803780D01*
X1553580Y794260D01*
X1555560Y792280D01*
X1587040Y792280D01*
X1589019Y794260D01*
X1589019Y825740D01*
X1587040Y827720D01*
G37*
G36*
X1492960Y827720D02*
G01*
X1490980Y825740D01*
X1490980Y794260D01*
X1492960Y792280D01*
X1524440Y792280D01*
X1526420Y794260D01*
X1526420Y803220D01*
X1511860Y803220D01*
X1511860Y816220D01*
X1526420Y816220D01*
X1526420Y825740D01*
X1524440Y827720D01*
G37*
G36*
X1755560Y827720D02*
G01*
X1753580Y825740D01*
X1753580Y816780D01*
X1768160Y816780D01*
X1768160Y803780D01*
X1753580Y803780D01*
X1753580Y794260D01*
X1755560Y792280D01*
X1787040Y792280D01*
X1789019Y794260D01*
X1789019Y825740D01*
X1787040Y827720D01*
G37*
G36*
X1692960Y827720D02*
G01*
X1690980Y825740D01*
X1690980Y794260D01*
X1692960Y792280D01*
X1724440Y792280D01*
X1726420Y794260D01*
X1726420Y803220D01*
X1711860Y803220D01*
X1711860Y816220D01*
X1726420Y816220D01*
X1726420Y825740D01*
X1724440Y827720D01*
G37*
G36*
X1955560Y827720D02*
G01*
X1953580Y825740D01*
X1953580Y816780D01*
X1968160Y816780D01*
X1968160Y803780D01*
X1953580Y803780D01*
X1953580Y794260D01*
X1955560Y792280D01*
X1987040Y792280D01*
X1989019Y794260D01*
X1989019Y825740D01*
X1987040Y827720D01*
G37*
G36*
X1892960Y827720D02*
G01*
X1890980Y825740D01*
X1890980Y794260D01*
X1892960Y792280D01*
X1924440Y792280D01*
X1926420Y794260D01*
X1926420Y803220D01*
X1911860Y803220D01*
X1911860Y816220D01*
X1926420Y816220D01*
X1926420Y825740D01*
X1924440Y827720D01*
G37*
G36*
X2155560Y827720D02*
G01*
X2153580Y825740D01*
X2153580Y816780D01*
X2168160Y816780D01*
X2168160Y803780D01*
X2153580Y803780D01*
X2153580Y794260D01*
X2155560Y792280D01*
X2187040Y792280D01*
X2189020Y794260D01*
X2189020Y825740D01*
X2187040Y827720D01*
G37*
G36*
X2092960Y827720D02*
G01*
X2090980Y825740D01*
X2090980Y794260D01*
X2092960Y792280D01*
X2124440Y792280D01*
X2126420Y794260D01*
X2126420Y803220D01*
X2111860Y803220D01*
X2111860Y816220D01*
X2126420Y816220D01*
X2126420Y825740D01*
X2124440Y827720D01*
G37*
D10*
G01*
X2047640Y1675000D03*
G01*
X2252365Y1675000D03*
G01*
X2047640Y1725000D03*
G01*
X2047640Y1625000D03*
G01*
X2047640Y1575000D03*
G01*
X2252365Y1725000D03*
G01*
X2252365Y1625000D03*
G01*
X2252365Y1575000D03*
D11*
G01*
X2217950Y2330000D03*
G01*
X1962050Y2330000D03*
G01*
X1637949Y2740000D03*
G01*
X1382050Y2740000D03*
G01*
X2217950Y2750000D03*
G01*
X1962050Y2750000D03*
D12*
G01*
X3602600Y1920004D03*
G01*
X3677400Y1920004D03*
D11*
G01*
X1647949Y2320000D03*
G01*
X1392050Y2320000D03*
D10*
G01*
X1297640Y1675000D03*
G01*
X1502365Y1675000D03*
G01*
X1297640Y1725000D03*
G01*
X1297640Y1625000D03*
G01*
X1297640Y1575000D03*
G01*
X1502365Y1725000D03*
G01*
X1502365Y1625000D03*
G01*
X1502365Y1575000D03*
D13*
G01*
X1362600Y1220005D03*
G01*
X1437400Y1220005D03*
G01*
X2082600Y1220000D03*
G01*
X2157400Y1220000D03*
G01*
X2412600Y1220000D03*
G01*
X2487400Y1220000D03*
G01*
X2862600Y1220000D03*
G01*
X2937400Y1220000D03*
G01*
X1692600Y1220000D03*
G01*
X1767400Y1220000D03*
M02*
