G04 Layer: TopSilkscreenLayer*
G04 EasyEDA v6.5.48, 2025-02-09 20:19:28*
G04 01cb3c1d78794921a089d1304ca59f51,d72c4acdc2164061951c9b7558476481,10*
G04 Gerber Generator version 0.2*
G04 Scale: 100 percent, Rotated: No, Reflected: No *
G04 Dimensions in inches *
G04 leading zeros omitted , absolute positions ,3 integer and 6 decimal *
%FSLAX36Y36*%
%MOIN*%

%ADD10C,0.0060*%
%ADD11C,0.0080*%
%ADD12C,0.0100*%
%ADD13C,0.0080*%
%ADD14C,0.0047*%
%ADD15C,0.0135*%

%LPD*%
D10*
X1010000Y2425400D02*
G01*
X1010000Y2382500D01*
X1038600Y2425400D02*
G01*
X1038600Y2382500D01*
X1010000Y2405000D02*
G01*
X1038600Y2405000D01*
X1052100Y2417200D02*
G01*
X1056200Y2419300D01*
X1062400Y2425400D01*
X1062400Y2382500D01*
X629400Y1645000D02*
G01*
X596700Y1645000D01*
X590500Y1647100D01*
X588500Y1649100D01*
X586500Y1653200D01*
X586500Y1657300D01*
X588500Y1661399D01*
X590500Y1663500D01*
X596700Y1665500D01*
X600800Y1665500D01*
X621200Y1631500D02*
G01*
X623300Y1627500D01*
X629400Y1621300D01*
X586500Y1621300D01*
X3550000Y3005400D02*
G01*
X3550000Y2962500D01*
X3550000Y3005400D02*
G01*
X3568399Y3005400D01*
X3574500Y3003399D01*
X3576600Y3001300D01*
X3578600Y2997200D01*
X3578600Y2991100D01*
X3576600Y2987000D01*
X3574500Y2985000D01*
X3568399Y2982900D01*
X3550000Y2982900D01*
X3592100Y2997200D02*
G01*
X3596200Y2999300D01*
X3602400Y3005400D01*
X3602400Y2962500D01*
X790000Y885400D02*
G01*
X790000Y842500D01*
X790000Y885400D02*
G01*
X808400Y885400D01*
X814500Y883400D01*
X816600Y881300D01*
X818600Y877200D01*
X818600Y873100D01*
X816600Y869000D01*
X814500Y867000D01*
X808400Y865000D01*
X790000Y865000D01*
X804300Y865000D02*
G01*
X818600Y842500D01*
X856700Y879300D02*
G01*
X854599Y883400D01*
X848500Y885400D01*
X844400Y885400D01*
X838300Y883400D01*
X834200Y877200D01*
X832099Y867000D01*
X832099Y856800D01*
X834200Y848600D01*
X838300Y844500D01*
X844400Y842500D01*
X846500Y842500D01*
X852600Y844500D01*
X856700Y848600D01*
X858700Y854700D01*
X858700Y856800D01*
X856700Y862900D01*
X852600Y867000D01*
X846500Y869000D01*
X844400Y869000D01*
X838300Y867000D01*
X834200Y862900D01*
X832099Y856800D01*
X970000Y885400D02*
G01*
X970000Y842500D01*
X970000Y885400D02*
G01*
X988400Y885400D01*
X994500Y883400D01*
X996600Y881300D01*
X998600Y877200D01*
X998600Y873100D01*
X996600Y869000D01*
X994500Y867000D01*
X988400Y865000D01*
X970000Y865000D01*
X984300Y865000D02*
G01*
X998600Y842500D01*
X1040800Y885400D02*
G01*
X1020300Y842500D01*
X1012099Y885400D02*
G01*
X1040800Y885400D01*
X1170000Y885400D02*
G01*
X1170000Y842500D01*
X1170000Y885400D02*
G01*
X1188400Y885400D01*
X1194500Y883400D01*
X1196600Y881300D01*
X1198600Y877200D01*
X1198600Y873100D01*
X1196600Y869000D01*
X1194500Y867000D01*
X1188400Y865000D01*
X1170000Y865000D01*
X1184300Y865000D02*
G01*
X1198600Y842500D01*
X1222400Y885400D02*
G01*
X1216200Y883400D01*
X1214200Y879300D01*
X1214200Y875200D01*
X1216200Y871100D01*
X1220300Y869000D01*
X1228500Y867000D01*
X1234600Y865000D01*
X1238700Y860900D01*
X1240800Y856800D01*
X1240800Y850600D01*
X1238700Y846500D01*
X1236700Y844500D01*
X1230500Y842500D01*
X1222400Y842500D01*
X1216200Y844500D01*
X1214200Y846500D01*
X1212100Y850600D01*
X1212100Y856800D01*
X1214200Y860900D01*
X1218300Y865000D01*
X1224400Y867000D01*
X1232600Y869000D01*
X1236700Y871100D01*
X1238700Y875200D01*
X1238700Y879300D01*
X1236700Y883400D01*
X1230500Y885400D01*
X1222400Y885400D01*
X1340000Y895400D02*
G01*
X1340000Y852500D01*
X1340000Y895400D02*
G01*
X1358400Y895400D01*
X1364500Y893400D01*
X1366600Y891300D01*
X1368600Y887200D01*
X1368600Y883100D01*
X1366600Y879000D01*
X1364500Y877000D01*
X1358400Y875000D01*
X1340000Y875000D01*
X1354300Y875000D02*
G01*
X1368600Y852500D01*
X1408700Y881100D02*
G01*
X1406699Y875000D01*
X1402600Y870900D01*
X1396500Y868800D01*
X1394400Y868800D01*
X1388300Y870900D01*
X1384199Y875000D01*
X1382100Y881100D01*
X1382100Y883100D01*
X1384199Y889300D01*
X1388300Y893400D01*
X1394400Y895400D01*
X1396500Y895400D01*
X1402600Y893400D01*
X1406699Y889300D01*
X1408700Y881100D01*
X1408700Y870900D01*
X1406699Y860600D01*
X1402600Y854500D01*
X1396500Y852500D01*
X1392400Y852500D01*
X1386200Y854500D01*
X1384199Y858600D01*
X1540000Y895400D02*
G01*
X1540000Y852500D01*
X1540000Y895400D02*
G01*
X1558400Y895400D01*
X1564500Y893400D01*
X1566600Y891300D01*
X1568600Y887200D01*
X1568600Y883100D01*
X1566600Y879000D01*
X1564500Y877000D01*
X1558400Y875000D01*
X1540000Y875000D01*
X1554300Y875000D02*
G01*
X1568600Y852500D01*
X1582100Y887200D02*
G01*
X1586200Y889300D01*
X1592400Y895400D01*
X1592400Y852500D01*
X1618100Y895400D02*
G01*
X1612000Y893400D01*
X1607900Y887200D01*
X1605900Y877000D01*
X1605900Y870900D01*
X1607900Y860600D01*
X1612000Y854500D01*
X1618100Y852500D01*
X1622200Y852500D01*
X1628400Y854500D01*
X1632500Y860600D01*
X1634500Y870900D01*
X1634500Y877000D01*
X1632500Y887200D01*
X1628400Y893400D01*
X1622200Y895400D01*
X1618100Y895400D01*
X1740000Y895400D02*
G01*
X1740000Y852500D01*
X1740000Y895400D02*
G01*
X1758400Y895400D01*
X1764500Y893400D01*
X1766600Y891300D01*
X1768600Y887200D01*
X1768600Y883100D01*
X1766600Y879000D01*
X1764500Y877000D01*
X1758400Y875000D01*
X1740000Y875000D01*
X1754300Y875000D02*
G01*
X1768600Y852500D01*
X1782100Y887200D02*
G01*
X1786200Y889300D01*
X1792400Y895400D01*
X1792400Y852500D01*
X1805900Y887200D02*
G01*
X1810000Y889300D01*
X1816100Y895400D01*
X1816100Y852500D01*
X1940000Y895400D02*
G01*
X1940000Y852500D01*
X1940000Y895400D02*
G01*
X1958400Y895400D01*
X1964500Y893400D01*
X1966600Y891300D01*
X1968600Y887200D01*
X1968600Y883100D01*
X1966600Y879000D01*
X1964500Y877000D01*
X1958400Y875000D01*
X1940000Y875000D01*
X1954300Y875000D02*
G01*
X1968600Y852500D01*
X1982100Y887200D02*
G01*
X1986200Y889300D01*
X1992400Y895400D01*
X1992400Y852500D01*
X2007900Y885200D02*
G01*
X2007900Y887200D01*
X2010000Y891300D01*
X2012000Y893400D01*
X2016100Y895400D01*
X2024300Y895400D01*
X2028400Y893400D01*
X2030400Y891300D01*
X2032500Y887200D01*
X2032500Y883100D01*
X2030400Y879000D01*
X2026300Y872900D01*
X2005900Y852500D01*
X2034500Y852500D01*
X2140000Y895400D02*
G01*
X2140000Y852500D01*
X2140000Y895400D02*
G01*
X2158400Y895400D01*
X2164500Y893400D01*
X2166600Y891300D01*
X2168600Y887200D01*
X2168600Y883100D01*
X2166600Y879000D01*
X2164500Y877000D01*
X2158400Y875000D01*
X2140000Y875000D01*
X2154300Y875000D02*
G01*
X2168600Y852500D01*
X2182100Y887200D02*
G01*
X2186200Y889300D01*
X2192400Y895400D01*
X2192400Y852500D01*
X2210000Y895400D02*
G01*
X2232500Y895400D01*
X2220200Y879000D01*
X2226300Y879000D01*
X2230400Y877000D01*
X2232500Y875000D01*
X2234500Y868800D01*
X2234500Y864700D01*
X2232500Y858600D01*
X2228400Y854500D01*
X2222200Y852500D01*
X2216100Y852500D01*
X2210000Y854500D01*
X2207900Y856500D01*
X2205900Y860600D01*
X518600Y459300D02*
G01*
X514500Y463400D01*
X508400Y465400D01*
X500200Y465400D01*
X494099Y463400D01*
X490000Y459300D01*
X490000Y455200D01*
X492000Y451100D01*
X494099Y449000D01*
X498200Y447000D01*
X510500Y442900D01*
X514500Y440900D01*
X516599Y438800D01*
X518600Y434700D01*
X518600Y428600D01*
X514500Y424500D01*
X508400Y422500D01*
X500200Y422500D01*
X494099Y424500D01*
X490000Y428600D01*
X532100Y457200D02*
G01*
X536200Y459300D01*
X542400Y465400D01*
X542400Y422500D01*
X938600Y459300D02*
G01*
X934500Y463400D01*
X928400Y465400D01*
X920200Y465400D01*
X914100Y463400D01*
X910000Y459300D01*
X910000Y455200D01*
X912000Y451100D01*
X914100Y449000D01*
X918199Y447000D01*
X930500Y442900D01*
X934500Y440900D01*
X936600Y438800D01*
X938600Y434700D01*
X938600Y428600D01*
X934500Y424500D01*
X928400Y422500D01*
X920200Y422500D01*
X914100Y424500D01*
X910000Y428600D01*
X954200Y455200D02*
G01*
X954200Y457200D01*
X956200Y461300D01*
X958300Y463400D01*
X962400Y465400D01*
X970500Y465400D01*
X974599Y463400D01*
X976700Y461300D01*
X978700Y457200D01*
X978700Y453100D01*
X976700Y449000D01*
X972600Y442900D01*
X952099Y422500D01*
X980800Y422500D01*
X308600Y1429300D02*
G01*
X304500Y1433400D01*
X298400Y1435400D01*
X290200Y1435400D01*
X284100Y1433400D01*
X280000Y1429300D01*
X280000Y1425200D01*
X282000Y1421100D01*
X284100Y1419000D01*
X288200Y1417000D01*
X300500Y1412900D01*
X304500Y1410900D01*
X306600Y1408800D01*
X308600Y1404700D01*
X308600Y1398600D01*
X304500Y1394500D01*
X298400Y1392500D01*
X290200Y1392500D01*
X284100Y1394500D01*
X280000Y1398600D01*
X322100Y1435400D02*
G01*
X332400Y1392500D01*
X342600Y1435400D02*
G01*
X332400Y1392500D01*
X342600Y1435400D02*
G01*
X352800Y1392500D01*
X363000Y1435400D02*
G01*
X352800Y1392500D01*
X376500Y1427200D02*
G01*
X380600Y1429300D01*
X386800Y1435400D01*
X386800Y1392500D01*
X1408600Y569300D02*
G01*
X1404500Y573400D01*
X1398400Y575400D01*
X1390200Y575400D01*
X1384100Y573400D01*
X1380000Y569300D01*
X1380000Y565200D01*
X1382000Y561100D01*
X1384100Y559000D01*
X1388200Y557000D01*
X1400500Y552900D01*
X1404500Y550900D01*
X1406600Y548800D01*
X1408600Y544700D01*
X1408600Y538600D01*
X1404500Y534500D01*
X1398400Y532500D01*
X1390200Y532500D01*
X1384100Y534500D01*
X1380000Y538600D01*
X1426200Y575400D02*
G01*
X1448700Y575400D01*
X1436500Y559000D01*
X1442600Y559000D01*
X1446699Y557000D01*
X1448700Y555000D01*
X1450800Y548800D01*
X1450800Y544700D01*
X1448700Y538600D01*
X1444600Y534500D01*
X1438500Y532500D01*
X1432400Y532500D01*
X1426200Y534500D01*
X1424199Y536500D01*
X1422100Y540600D01*
X1808600Y569300D02*
G01*
X1804500Y573400D01*
X1798400Y575400D01*
X1790200Y575400D01*
X1784100Y573400D01*
X1780000Y569300D01*
X1780000Y565200D01*
X1782000Y561100D01*
X1784100Y559000D01*
X1788200Y557000D01*
X1800500Y552900D01*
X1804500Y550900D01*
X1806600Y548800D01*
X1808600Y544700D01*
X1808600Y538600D01*
X1804500Y534500D01*
X1798400Y532500D01*
X1790200Y532500D01*
X1784100Y534500D01*
X1780000Y538600D01*
X1842600Y575400D02*
G01*
X1822100Y546800D01*
X1852800Y546800D01*
X1842600Y575400D02*
G01*
X1842600Y532500D01*
X2298600Y569300D02*
G01*
X2294500Y573400D01*
X2288400Y575400D01*
X2280200Y575400D01*
X2274100Y573400D01*
X2270000Y569300D01*
X2270000Y565200D01*
X2272000Y561100D01*
X2274100Y559000D01*
X2278200Y557000D01*
X2290500Y552900D01*
X2294500Y550900D01*
X2296600Y548800D01*
X2298600Y544700D01*
X2298600Y538600D01*
X2294500Y534500D01*
X2288400Y532500D01*
X2280200Y532500D01*
X2274100Y534500D01*
X2270000Y538600D01*
X2336700Y575400D02*
G01*
X2316200Y575400D01*
X2314200Y557000D01*
X2316200Y559000D01*
X2322400Y561100D01*
X2328500Y561100D01*
X2334600Y559000D01*
X2338700Y555000D01*
X2340800Y548800D01*
X2340800Y544700D01*
X2338700Y538600D01*
X2334600Y534500D01*
X2328500Y532500D01*
X2322400Y532500D01*
X2316200Y534500D01*
X2314200Y536500D01*
X2312100Y540600D01*
X2748600Y559300D02*
G01*
X2744500Y563400D01*
X2738399Y565400D01*
X2730200Y565400D01*
X2724100Y563400D01*
X2720000Y559300D01*
X2720000Y555200D01*
X2722000Y551100D01*
X2724100Y549000D01*
X2728200Y547000D01*
X2740500Y542900D01*
X2744500Y540900D01*
X2746600Y538800D01*
X2748600Y534700D01*
X2748600Y528600D01*
X2744500Y524500D01*
X2738399Y522500D01*
X2730200Y522500D01*
X2724100Y524500D01*
X2720000Y528600D01*
X2786700Y559300D02*
G01*
X2784600Y563400D01*
X2778500Y565400D01*
X2774400Y565400D01*
X2768300Y563400D01*
X2764200Y557200D01*
X2762100Y547000D01*
X2762100Y536800D01*
X2764200Y528600D01*
X2768300Y524500D01*
X2774400Y522500D01*
X2776500Y522500D01*
X2782600Y524500D01*
X2786700Y528600D01*
X2788700Y534700D01*
X2788700Y536800D01*
X2786700Y542900D01*
X2782600Y547000D01*
X2776500Y549000D01*
X2774400Y549000D01*
X2768300Y547000D01*
X2764200Y542900D01*
X2762100Y536800D01*
X3158600Y559300D02*
G01*
X3154500Y563400D01*
X3148399Y565400D01*
X3140200Y565400D01*
X3134100Y563400D01*
X3130000Y559300D01*
X3130000Y555200D01*
X3132000Y551100D01*
X3134100Y549000D01*
X3138200Y547000D01*
X3150500Y542900D01*
X3154500Y540900D01*
X3156600Y538800D01*
X3158600Y534700D01*
X3158600Y528600D01*
X3154500Y524500D01*
X3148399Y522500D01*
X3140200Y522500D01*
X3134100Y524500D01*
X3130000Y528600D01*
X3200800Y565400D02*
G01*
X3180299Y522500D01*
X3172100Y565400D02*
G01*
X3200800Y565400D01*
X3588600Y549300D02*
G01*
X3584500Y553400D01*
X3578399Y555400D01*
X3570200Y555400D01*
X3564100Y553400D01*
X3560000Y549300D01*
X3560000Y545200D01*
X3562000Y541100D01*
X3564100Y539000D01*
X3568200Y537000D01*
X3580500Y532900D01*
X3584500Y530900D01*
X3586600Y528800D01*
X3588600Y524700D01*
X3588600Y518600D01*
X3584500Y514500D01*
X3578399Y512500D01*
X3570200Y512500D01*
X3564100Y514500D01*
X3560000Y518600D01*
X3612400Y555400D02*
G01*
X3606200Y553400D01*
X3604200Y549300D01*
X3604200Y545200D01*
X3606200Y541100D01*
X3610299Y539000D01*
X3618500Y537000D01*
X3624600Y535000D01*
X3628700Y530900D01*
X3630800Y526800D01*
X3630800Y520600D01*
X3628700Y516500D01*
X3626700Y514500D01*
X3620500Y512500D01*
X3612400Y512500D01*
X3606200Y514500D01*
X3604200Y516500D01*
X3602100Y520600D01*
X3602100Y526800D01*
X3604200Y530900D01*
X3608300Y535000D01*
X3614400Y537000D01*
X3622600Y539000D01*
X3626700Y541100D01*
X3628700Y545200D01*
X3628700Y549300D01*
X3626700Y553400D01*
X3620500Y555400D01*
X3612400Y555400D01*
D11*
X2233700Y2402840D02*
G01*
X1946300Y2402840D01*
X1946300Y2257170D02*
G01*
X2233700Y2257170D01*
X2160870Y2276850D02*
G01*
X2156930Y2261100D01*
X2160870Y2383150D02*
G01*
X2156930Y2398900D01*
X1653700Y2812840D02*
G01*
X1366300Y2812840D01*
X1366300Y2667170D02*
G01*
X1653700Y2667170D01*
X1580870Y2686850D02*
G01*
X1576930Y2671100D01*
X1580870Y2793150D02*
G01*
X1576930Y2808900D01*
X2233700Y2822840D02*
G01*
X1946300Y2822840D01*
X1946300Y2677170D02*
G01*
X2233700Y2677170D01*
X2160860Y2696850D02*
G01*
X2156930Y2681100D01*
X2160860Y2803150D02*
G01*
X2156930Y2818900D01*
X1663700Y2392840D02*
G01*
X1376300Y2392840D01*
X1376300Y2247170D02*
G01*
X1663700Y2247170D01*
X1590860Y2266850D02*
G01*
X1586930Y2251100D01*
X1590860Y2373150D02*
G01*
X1586930Y2388900D01*
D10*
X570000Y2900000D02*
G01*
X610000Y2900000D01*
X590000Y2920000D02*
G01*
X590000Y2880000D01*
D11*
X1120000Y2370000D02*
G01*
X1120000Y2271000D01*
X920000Y2271000D01*
X920000Y2370000D01*
X1120000Y2370000D01*
D12*
X462701Y1763350D02*
G01*
X569000Y1763350D01*
X569000Y1566500D01*
X462701Y1566500D01*
X462000Y1547279D02*
G01*
X462000Y1783500D01*
X17118Y1783500D01*
X17118Y1547279D01*
X462000Y1547279D01*
D11*
X3425000Y2950000D02*
G01*
X3350000Y2950000D01*
X3350000Y2855000D01*
X3750000Y2855000D01*
X3750000Y2950000D01*
D13*
X3750000Y2950000D02*
G01*
X3425000Y2950000D01*
D10*
X806780Y773991D02*
G01*
X844531Y773991D01*
X844531Y826008D01*
X806780Y826008D01*
X773220Y773991D02*
G01*
X735468Y773991D01*
X735468Y826008D01*
X773220Y826008D01*
X986780Y773991D02*
G01*
X1024531Y773991D01*
X1024531Y826008D01*
X986780Y826008D01*
X953220Y773991D02*
G01*
X915468Y773991D01*
X915468Y826008D01*
X953220Y826008D01*
X1186780Y773991D02*
G01*
X1224531Y773991D01*
X1224531Y826008D01*
X1186780Y826008D01*
X1153220Y773991D02*
G01*
X1115469Y773991D01*
X1115469Y826008D01*
X1153220Y826008D01*
X1356780Y783991D02*
G01*
X1394531Y783991D01*
X1394531Y836008D01*
X1356780Y836008D01*
X1323220Y783991D02*
G01*
X1285469Y783991D01*
X1285469Y836008D01*
X1323220Y836008D01*
X1556780Y783991D02*
G01*
X1594531Y783991D01*
X1594531Y836008D01*
X1556780Y836008D01*
X1523220Y783991D02*
G01*
X1485469Y783991D01*
X1485469Y836008D01*
X1523220Y836008D01*
X1756780Y783991D02*
G01*
X1794531Y783991D01*
X1794531Y836008D01*
X1756780Y836008D01*
X1723220Y783991D02*
G01*
X1685469Y783991D01*
X1685469Y836008D01*
X1723220Y836008D01*
X1956780Y783991D02*
G01*
X1994531Y783991D01*
X1994531Y836008D01*
X1956780Y836008D01*
X1923220Y783991D02*
G01*
X1885469Y783991D01*
X1885469Y836008D01*
X1923220Y836008D01*
X2156780Y783991D02*
G01*
X2194531Y783991D01*
X2194531Y836008D01*
X2156780Y836008D01*
X2123220Y783991D02*
G01*
X2085469Y783991D01*
X2085469Y836008D01*
X2123220Y836008D01*
D11*
X390000Y400000D02*
G01*
X590000Y400000D01*
X618000Y369000D02*
G01*
X618000Y191000D01*
X590000Y160000D02*
G01*
X390000Y160000D01*
X362000Y191000D02*
G01*
X362000Y369000D01*
X810000Y400000D02*
G01*
X1010000Y400000D01*
X1038000Y369000D02*
G01*
X1038000Y191000D01*
X1010000Y160000D02*
G01*
X810000Y160000D01*
X782000Y191000D02*
G01*
X782000Y369000D01*
D12*
X30000Y1375000D02*
G01*
X530000Y1375000D01*
X530000Y1104920D01*
X30000Y1104920D01*
X30000Y1375000D01*
D14*
X3249400Y1870000D02*
G01*
X3156900Y1870000D01*
X3306500Y1740100D02*
G01*
X3306500Y1671200D01*
X3166800Y1671200D01*
X3306500Y1999900D02*
G01*
X3306500Y2068800D01*
X3164800Y2068800D01*
X3251400Y1870000D02*
G01*
X3212000Y1832600D01*
X3251400Y1868000D02*
G01*
X3214000Y1907400D01*
X3251400Y1999900D02*
G01*
X3357700Y1999900D01*
X3357700Y1740100D01*
X3251400Y1740100D01*
X3251400Y1999900D01*
X3639400Y1850000D02*
G01*
X3546900Y1850000D01*
X3696500Y1720100D02*
G01*
X3696500Y1651200D01*
X3556800Y1651200D01*
X3696500Y1979900D02*
G01*
X3696500Y2048800D01*
X3554800Y2048800D01*
X3641400Y1850000D02*
G01*
X3602000Y1812600D01*
X3641400Y1848000D02*
G01*
X3604000Y1887400D01*
X3641400Y1979900D02*
G01*
X3747700Y1979900D01*
X3747700Y1720100D01*
X3641400Y1720100D01*
X3641400Y1979900D01*
D11*
X1290000Y400000D02*
G01*
X1490000Y400000D01*
X1518000Y369000D02*
G01*
X1518000Y191000D01*
X1490000Y160000D02*
G01*
X1290000Y160000D01*
X1262000Y191000D02*
G01*
X1262000Y369000D01*
X1690000Y400000D02*
G01*
X1890000Y400000D01*
X1918000Y369000D02*
G01*
X1918000Y191000D01*
X1890000Y160000D02*
G01*
X1690000Y160000D01*
X1662000Y191000D02*
G01*
X1662000Y369000D01*
X2180000Y400000D02*
G01*
X2380000Y400000D01*
X2408000Y369000D02*
G01*
X2408000Y191000D01*
X2380000Y160000D02*
G01*
X2180000Y160000D01*
X2152000Y191000D02*
G01*
X2152000Y369000D01*
X2630000Y390000D02*
G01*
X2830000Y390000D01*
X2858000Y359000D02*
G01*
X2858000Y181000D01*
X2830000Y150000D02*
G01*
X2630000Y150000D01*
X2602000Y181000D02*
G01*
X2602000Y359000D01*
X3040000Y390000D02*
G01*
X3240000Y390000D01*
X3268000Y359000D02*
G01*
X3268000Y181000D01*
X3240000Y150000D02*
G01*
X3040000Y150000D01*
X3012000Y181000D02*
G01*
X3012000Y359000D01*
X3470000Y380000D02*
G01*
X3670000Y380000D01*
X3698000Y349000D02*
G01*
X3698000Y171000D01*
X3670000Y140000D02*
G01*
X3470000Y140000D01*
X3442000Y171000D02*
G01*
X3442000Y349000D01*
D10*
G75*
G01*
X510000Y2800000D02*
G03*
X510000Y2799740I-50000J-130D01*
G75*
G01*
X700000Y2800000D02*
G03*
X700000Y2799750I-240000J-125D01*
G75*
G01*
X620000Y2900000D02*
G03*
X620000Y2899840I-30000J-80D01*
D12*
G75*
G01*
X378600Y1635000D02*
G03*
X378100Y1635000I-250J29527D01*
G75*
G01*
X141600Y1635000D02*
G03*
X141100Y1635000I-250J29527D01*
D11*
G75*
G01*
X590000Y400000D02*
G02*
X618000Y369000I-1502J-29502D01*
G75*
G01*
X618000Y191000D02*
G02*
X590000Y160000I-29502J-1498D01*
G75*
G01*
X390000Y160000D02*
G02*
X362000Y191000I1502J29502D01*
G75*
G01*
X362000Y369000D02*
G02*
X390000Y400000I29502J1498D01*
G75*
G01*
X560000Y280000D02*
G03*
X560000Y279830I-70000J-85D01*
G75*
G01*
X1010000Y400000D02*
G02*
X1038000Y369000I-1502J-29502D01*
G75*
G01*
X1038000Y191000D02*
G02*
X1010000Y160000I-29502J-1498D01*
G75*
G01*
X810000Y160000D02*
G02*
X782000Y191000I1502J29502D01*
G75*
G01*
X782000Y369000D02*
G02*
X810000Y400000I29502J1498D01*
G75*
G01*
X980000Y280000D02*
G03*
X980000Y279830I-70000J-85D01*
G75*
G01*
X1490000Y400000D02*
G02*
X1518000Y369000I-1502J-29502D01*
G75*
G01*
X1518000Y191000D02*
G02*
X1490000Y160000I-29502J-1498D01*
G75*
G01*
X1290000Y160000D02*
G02*
X1262000Y191000I1502J29502D01*
G75*
G01*
X1262000Y369000D02*
G02*
X1290000Y400000I29502J1498D01*
G75*
G01*
X1460000Y280000D02*
G03*
X1460000Y279830I-70000J-85D01*
G75*
G01*
X1890000Y400000D02*
G02*
X1918000Y369000I-1502J-29502D01*
G75*
G01*
X1918000Y191000D02*
G02*
X1890000Y160000I-29502J-1498D01*
G75*
G01*
X1690000Y160000D02*
G02*
X1662000Y191000I1502J29502D01*
G75*
G01*
X1662000Y369000D02*
G02*
X1690000Y400000I29502J1498D01*
G75*
G01*
X1860000Y280000D02*
G03*
X1860000Y279830I-70000J-85D01*
G75*
G01*
X2380000Y400000D02*
G02*
X2408000Y369000I-1502J-29502D01*
G75*
G01*
X2408000Y191000D02*
G02*
X2380000Y160000I-29502J-1498D01*
G75*
G01*
X2180000Y160000D02*
G02*
X2152000Y191000I1502J29502D01*
G75*
G01*
X2152000Y369000D02*
G02*
X2180000Y400000I29502J1498D01*
G75*
G01*
X2350000Y280000D02*
G03*
X2350000Y279830I-70000J-85D01*
G75*
G01*
X2830000Y390000D02*
G02*
X2858000Y359000I-1502J-29502D01*
G75*
G01*
X2858000Y181000D02*
G02*
X2830000Y150000I-29502J-1498D01*
G75*
G01*
X2630000Y150000D02*
G02*
X2602000Y181000I1502J29502D01*
G75*
G01*
X2602000Y359000D02*
G02*
X2630000Y390000I29502J1498D01*
G75*
G01*
X2800000Y270000D02*
G03*
X2800000Y269830I-70000J-85D01*
G75*
G01*
X3240000Y390000D02*
G02*
X3268000Y359000I-1502J-29502D01*
G75*
G01*
X3268000Y181000D02*
G02*
X3240000Y150000I-29502J-1498D01*
G75*
G01*
X3040000Y150000D02*
G02*
X3012000Y181000I1502J29502D01*
G75*
G01*
X3012000Y359000D02*
G02*
X3040000Y390000I29502J1498D01*
G75*
G01*
X3210000Y270000D02*
G03*
X3210000Y269830I-70000J-85D01*
G75*
G01*
X3670000Y380000D02*
G02*
X3698000Y349000I-1502J-29502D01*
G75*
G01*
X3698000Y171000D02*
G02*
X3670000Y140000I-29502J-1498D01*
G75*
G01*
X3470000Y140000D02*
G02*
X3442000Y171000I1502J29502D01*
G75*
G01*
X3442000Y349000D02*
G02*
X3470000Y380000I29502J1498D01*
G75*
G01*
X3640000Y260000D02*
G03*
X3640000Y259830I-70000J-85D01*
M02*
